<svg width="165" height="48" viewBox="0 0 165 48" fill="none" xmlns="http://www.w3.org/2000/svg">
<path id="Logo Lockup" fill-rule="evenodd" clip-rule="evenodd" d="M20.1734 11.5374L36.9717 21.2359L36.9708 34.4064L40.3451 36.3535L41.2467 35.833V11.6477L21.0733 0.0005979L20.1734 0.519874V11.5374ZM10.0884 23.9441L26.8867 33.6429V40.2013L30.2612 42.1481L31.1617 41.6285V24.0547L10.9882 12.4073L10.0884 12.9269V23.9441ZM0 25.3357L0.89954 24.8164L21.0733 36.4635V47.4804L20.1728 48L0 36.3532V25.3357ZM80.5129 32.0929C79.1201 34.9344 76.2227 36.7173 72.5456 36.7173C66.8067 36.7173 61.9592 32.2041 61.625 23.568H80.6803C80.6803 17.9409 76.5569 12.9263 69.4252 12.9263C61.9592 12.9263 55.5518 18.9436 55.5518 28.2487C55.5518 37.2187 61.4581 42.233 68.8123 42.233C75.1641 42.233 79.7886 38.166 81.0705 32.0929H80.5129ZM67.3083 14.5421C70.8183 14.5421 72.8239 17.6623 73.27 22.2867H61.625C61.7368 17.1053 64.0766 14.5421 67.3083 14.5421ZM86.3236 41.5089V41.2306C85.4877 39.7819 85.5989 37.8315 87.6049 34.9344L91.0037 29.9757L94.0682 34.9344C95.7955 37.7762 96.0185 39.8375 95.1827 41.2306V41.5089H107.997V41.2306C106.437 40.0049 104.376 37.442 102.815 34.99L96.9097 25.6296L101.2 19.7794C103.15 17.1606 105.155 15.2662 107.273 13.9293V13.6507H100.531V13.9293C101.367 15.378 101.2 17.3839 99.1943 20.2255L96.1298 24.5713L93.4556 20.2255C91.6721 17.3839 91.5053 15.3224 92.3412 13.9293V13.6507H79.5261V13.9293C81.0301 15.155 82.8692 17.2718 84.7075 20.1693L90.2796 28.9171L85.6545 35.3798C83.7607 38.0548 81.6991 39.8931 79.5814 41.2306V41.5089H86.3236ZM119.591 42.233C123.213 42.233 126.11 40.3391 127.225 37.7762L126.668 37.4973C126.221 38.1101 125.052 38.8904 123.269 38.8904C120.761 38.8904 118.589 37.2187 118.589 33.7087V15.6566H125.999L126.668 13.6507H118.589V7.68899H118.31C115.692 10.6973 112.237 13.4276 108.56 14.8207V15.0994C109.953 15.6566 111.067 16.8823 111.067 18.9992V33.7087C111.067 39.0572 114.911 42.233 119.591 42.233ZM151.612 32.0929C150.218 34.9344 147.321 36.7173 143.644 36.7173C137.905 36.7173 133.058 32.2041 132.723 23.568H151.778C151.778 17.9409 147.655 12.9263 140.524 12.9263C133.058 12.9263 126.65 18.9436 126.65 28.2487C126.65 37.2187 132.556 42.233 139.911 42.233C146.262 42.233 150.887 38.166 152.169 32.0929H151.612ZM138.406 14.5421C141.917 14.5421 143.922 17.6623 144.368 22.2867H132.723C132.835 17.1053 135.175 14.5421 138.406 14.5421ZM154.023 41.5089V41.2306C155.026 39.7819 155.583 37.4973 155.583 34.9344V9.52724C155.583 6.35149 154.859 4.62446 153.577 3.39876V3.12014L162.826 0H163.104V34.9344C163.104 37.4973 163.662 39.7819 164.665 41.2306V41.5089H154.023Z" fill="#1A1919"/>
</svg>
